solid OpenSCAD_Model
  facet normal -1 0 0
    outer loop
      vertex -2.5 4.431 37.8623
      vertex -2.5 0 40
      vertex -2.5 4.18135 40
    endloop
  endfacet
  facet normal -1 0 0
    outer loop
      vertex -2.5 0 0
      vertex -2.5 0 40
      vertex -2.5 6.78017 31.3553
    endloop
  endfacet
  facet normal -1 0 0
    outer loop
      vertex -2.5 0 0
      vertex -2.5 6.78017 31.3553
      vertex -2.5 10.5812 25.4301
    endloop
  endfacet
  facet normal -1 0 0
    outer loop
      vertex -2.5 0 0
      vertex -2.5 10.5812 25.4301
      vertex -2.5 15.668 20.3456
    endloop
  endfacet
  facet normal -1 0 0
    outer loop
      vertex -2.5 0 0
      vertex -2.5 15.668 20.3456
      vertex -2.5 21.8182 16.324
    endloop
  endfacet
  facet normal -1 0 0
    outer loop
      vertex -2.5 0 0
      vertex -2.5 21.8182 16.324
      vertex -2.5 28.763 13.5412
    endloop
  endfacet
  facet normal -1 0 0
    outer loop
      vertex -2.5 0 0
      vertex -2.5 28.763 13.5412
      vertex -2.5 80 0
    endloop
  endfacet
  facet normal -1 0 0
    outer loop
      vertex -2.5 28.763 13.5412
      vertex -2.5 36.199 12.1187
      vertex -2.5 80 0
    endloop
  endfacet
  facet normal -1 0 0
    outer loop
      vertex -2.5 51.237 13.5412
      vertex -2.5 80 0
      vertex -2.5 43.801 12.1187
    endloop
  endfacet
  facet normal -1 0 0
    outer loop
      vertex -2.5 43.801 12.1187
      vertex -2.5 80 0
      vertex -2.5 36.199 12.1187
    endloop
  endfacet
  facet normal -1 0 0
    outer loop
      vertex -2.5 58.1818 16.324
      vertex -2.5 80 0
      vertex -2.5 51.237 13.5412
    endloop
  endfacet
  facet normal -1 0 0
    outer loop
      vertex -2.5 80 0
      vertex -2.5 58.1818 16.324
      vertex -2.5 64.332 20.3456
    endloop
  endfacet
  facet normal -1 0 0
    outer loop
      vertex -2.5 64.332 20.3456
      vertex -2.5 69.4188 25.4301
      vertex -2.5 80 0
    endloop
  endfacet
  facet normal -1 0 0
    outer loop
      vertex -2.5 69.4188 25.4301
      vertex -2.5 73.2198 31.3553
      vertex -2.5 80 0
    endloop
  endfacet
  facet normal -1 0 0
    outer loop
      vertex -2.5 73.2198 31.3553
      vertex -2.5 75.569 37.8623
      vertex -2.5 80 0
    endloop
  endfacet
  facet normal -1 0 0
    outer loop
      vertex -2.5 75.569 37.8623
      vertex -2.5 75.8187 40
      vertex -2.5 80 0
    endloop
  endfacet
  facet normal -1 0 0
    outer loop
      vertex -2.5 80 0
      vertex -2.5 75.8187 40
      vertex -2.5 80 40
    endloop
  endfacet
  facet normal -1 0 0
    outer loop
      vertex -2.5 6.78017 31.3553
      vertex -2.5 0 40
      vertex -2.5 4.431 37.8623
    endloop
  endfacet
  facet normal 0 -1 0
    outer loop
      vertex -2.5 0 40
      vertex -2.5 0 0
      vertex 2.5 0 0
    endloop
  endfacet
  facet normal 0 -1 0
    outer loop
      vertex -0.97082 0 37.2947
      vertex -2.5 0 40
      vertex 2.5 0 0
    endloop
  endfacet
  facet normal 0 -1 0
    outer loop
      vertex 0.37082 0 36.8587
      vertex -0.97082 0 37.2947
      vertex 2.5 0 0
    endloop
  endfacet
  facet normal 0 -1 0
    outer loop
      vertex -0.97082 0 38.7053
      vertex -2.5 0 40
      vertex -0.97082 0 37.2947
    endloop
  endfacet
  facet normal 0 -1 0
    outer loop
      vertex 2.5 0 40
      vertex -2.5 0 40
      vertex -0.97082 0 38.7053
    endloop
  endfacet
  facet normal 0 -1 0
    outer loop
      vertex 2.5 0 40
      vertex -0.97082 0 38.7053
      vertex 0.37082 0 39.1413
    endloop
  endfacet
  facet normal 0 -1 0
    outer loop
      vertex 2.5 0 40
      vertex 1.2 0 38
      vertex 2.5 0 0
    endloop
  endfacet
  facet normal 0 -1 0
    outer loop
      vertex 1.2 0 38
      vertex 0.37082 0 36.8587
      vertex 2.5 0 0
    endloop
  endfacet
  facet normal 0 -1 0
    outer loop
      vertex 0.37082 0 39.1413
      vertex 1.2 0 38
      vertex 2.5 0 40
    endloop
  endfacet
  facet normal 0 0 -1
    outer loop
      vertex -2.5 0 0
      vertex -2.5 80 0
      vertex 2.5 0 0
    endloop
  endfacet
  facet normal 0 0 -1
    outer loop
      vertex 2.5 0 0
      vertex -2.5 80 0
      vertex 2.5 80 0
    endloop
  endfacet
  facet normal 0 1 0
    outer loop
      vertex -2.5 80 0
      vertex -2.5 80 40
      vertex 2.5 80 0
    endloop
  endfacet
  facet normal 0 1 0
    outer loop
      vertex -0.97082 80 38.7053
      vertex -2.5 80 40
      vertex 2.5 80 40
    endloop
  endfacet
  facet normal 0 1 0
    outer loop
      vertex -0.97082 80 37.2947
      vertex -2.5 80 40
      vertex -0.97082 80 38.7053
    endloop
  endfacet
  facet normal 0 1 0
    outer loop
      vertex 0.37082 80 39.1413
      vertex -0.97082 80 38.7053
      vertex 2.5 80 40
    endloop
  endfacet
  facet normal 0 1 0
    outer loop
      vertex 2.5 80 0
      vertex -2.5 80 40
      vertex -0.97082 80 37.2947
    endloop
  endfacet
  facet normal 0 1 0
    outer loop
      vertex 0.37082 80 39.1413
      vertex 2.5 80 40
      vertex 1.2 80 38
    endloop
  endfacet
  facet normal 0 1 0
    outer loop
      vertex 2.5 80 0
      vertex 0.37082 80 36.8587
      vertex 1.2 80 38
    endloop
  endfacet
  facet normal 0 1 0
    outer loop
      vertex 2.5 80 0
      vertex 1.2 80 38
      vertex 2.5 80 40
    endloop
  endfacet
  facet normal 0 1 0
    outer loop
      vertex 0.37082 80 36.8587
      vertex 2.5 80 0
      vertex -0.97082 80 37.2947
    endloop
  endfacet
  facet normal 0 0 1
    outer loop
      vertex -2.5 80 40
      vertex -2.5 75.8187 40
      vertex 2.5 75.8187 40
    endloop
  endfacet
  facet normal 0 0 1
    outer loop
      vertex 2.5 80 40
      vertex -2.5 80 40
      vertex 2.5 75.8187 40
    endloop
  endfacet
  facet normal 2.20546e-16 -0.99325 0.115994
    outer loop
      vertex 2.5 75.8187 40
      vertex -0.97082 75.6675 38.7053
      vertex 0.37082 75.7184 39.1413
    endloop
  endfacet
  facet normal 2.20546e-16 -0.99325 0.115994
    outer loop
      vertex 1.2 75.5851 38
      vertex 2.5 75.569 37.8623
      vertex 0.37082 75.7184 39.1413
    endloop
  endfacet
  facet normal 2.20546e-16 -0.99325 0.115994
    outer loop
      vertex -0.97082 75.569 37.8623
      vertex -0.97082 75.6675 38.7053
      vertex -2.5 75.8187 40
    endloop
  endfacet
  facet normal 2.20546e-16 -0.99325 0.115994
    outer loop
      vertex 1.09994 75.569 37.8623
      vertex 2.5 75.569 37.8623
      vertex 1.2 75.5851 38
    endloop
  endfacet
  facet normal 2.20546e-16 -0.99325 0.115994
    outer loop
      vertex 2.5 75.569 37.8623
      vertex 2.5 75.8187 40
      vertex 0.37082 75.7184 39.1413
    endloop
  endfacet
  facet normal 2.20546e-16 -0.99325 0.115994
    outer loop
      vertex 2.5 75.8187 40
      vertex -2.5 75.8187 40
      vertex -0.97082 75.6675 38.7053
    endloop
  endfacet
  facet normal 2.20546e-16 -0.99325 0.115994
    outer loop
      vertex -2.5 75.8187 40
      vertex -2.5 75.569 37.8623
      vertex -0.97082 75.569 37.8623
    endloop
  endfacet
  facet normal 2.08851e-16 -0.940581 0.33957
    outer loop
      vertex 2.5 73.2198 31.3553
      vertex 2.5 75.569 37.8623
      vertex 1.09994 75.569 37.8623
    endloop
  endfacet
  facet normal 2.08851e-16 -0.940581 0.33957
    outer loop
      vertex -0.97082 75.3641 37.2947
      vertex 2.5 73.2198 31.3553
      vertex 0.37082 75.2067 36.8587
    endloop
  endfacet
  facet normal 2.08851e-16 -0.940581 0.33957
    outer loop
      vertex 0.37082 75.2067 36.8587
      vertex 2.5 73.2198 31.3553
      vertex 1.09994 75.569 37.8623
    endloop
  endfacet
  facet normal 2.08851e-16 -0.940581 0.33957
    outer loop
      vertex -2.5 75.569 37.8623
      vertex 2.5 73.2198 31.3553
      vertex -0.97082 75.3641 37.2947
    endloop
  endfacet
  facet normal 2.08851e-16 -0.940581 0.33957
    outer loop
      vertex -2.5 75.569 37.8623
      vertex -0.97082 75.3641 37.2947
      vertex -0.97082 75.569 37.8623
    endloop
  endfacet
  facet normal 2.08851e-16 -0.940581 0.33957
    outer loop
      vertex -2.5 73.2198 31.3553
      vertex 2.5 73.2198 31.3553
      vertex -2.5 75.569 37.8623
    endloop
  endfacet
  facet normal 1.86894e-16 -0.841698 0.539949
    outer loop
      vertex 2.5 69.4188 25.4301
      vertex 2.5 73.2198 31.3553
      vertex -2.5 73.2198 31.3553
    endloop
  endfacet
  facet normal 1.86894e-16 -0.841698 0.539949
    outer loop
      vertex -2.5 69.4188 25.4301
      vertex 2.5 69.4188 25.4301
      vertex -2.5 73.2198 31.3553
    endloop
  endfacet
  facet normal 1.56974e-16 -0.706948 0.707265
    outer loop
      vertex 2.5 64.332 20.3456
      vertex 2.5 69.4188 25.4301
      vertex -2.5 69.4188 25.4301
    endloop
  endfacet
  facet normal 1.56974e-16 -0.706948 0.707265
    outer loop
      vertex -2.5 64.332 20.3456
      vertex 2.5 64.332 20.3456
      vertex -2.5 69.4188 25.4301
    endloop
  endfacet
  facet normal 1.21519e-16 -0.547274 0.836953
    outer loop
      vertex 2.5 58.1818 16.324
      vertex 2.5 64.332 20.3456
      vertex -2.5 64.332 20.3456
    endloop
  endfacet
  facet normal 1.21519e-16 -0.547274 0.836953
    outer loop
      vertex -2.5 58.1818 16.324
      vertex 2.5 58.1818 16.324
      vertex -2.5 64.332 20.3456
    endloop
  endfacet
  facet normal 8.25907e-17 -0.371955 0.928251
    outer loop
      vertex 2.5 51.237 13.5412
      vertex 2.5 58.1818 16.324
      vertex -2.5 58.1818 16.324
    endloop
  endfacet
  facet normal 8.25907e-17 -0.371955 0.928251
    outer loop
      vertex -2.5 51.237 13.5412
      vertex 2.5 51.237 13.5412
      vertex -2.5 58.1818 16.324
    endloop
  endfacet
  facet normal 4.17208e-17 -0.187894 0.982189
    outer loop
      vertex 2.5 43.801 12.1187
      vertex 2.5 51.237 13.5412
      vertex -2.5 51.237 13.5412
    endloop
  endfacet
  facet normal 4.17208e-17 -0.187894 0.982189
    outer loop
      vertex -2.5 43.801 12.1187
      vertex 2.5 43.801 12.1187
      vertex -2.5 51.237 13.5412
    endloop
  endfacet
  facet normal 0 -2.22045e-16 1
    outer loop
      vertex 2.5 36.199 12.1187
      vertex 2.5 43.801 12.1187
      vertex -2.5 43.801 12.1187
    endloop
  endfacet
  facet normal 0 -2.22045e-16 1
    outer loop
      vertex -2.5 36.199 12.1187
      vertex 2.5 36.199 12.1187
      vertex -2.5 43.801 12.1187
    endloop
  endfacet
  facet normal -4.17208e-17 0.187894 0.982189
    outer loop
      vertex 2.5 28.763 13.5412
      vertex 2.5 36.199 12.1187
      vertex -2.5 36.199 12.1187
    endloop
  endfacet
  facet normal -4.17208e-17 0.187894 0.982189
    outer loop
      vertex -2.5 28.763 13.5412
      vertex 2.5 28.763 13.5412
      vertex -2.5 36.199 12.1187
    endloop
  endfacet
  facet normal -8.25907e-17 0.371955 0.928251
    outer loop
      vertex 2.5 21.8182 16.324
      vertex 2.5 28.763 13.5412
      vertex -2.5 28.763 13.5412
    endloop
  endfacet
  facet normal -8.25907e-17 0.371955 0.928251
    outer loop
      vertex -2.5 21.8182 16.324
      vertex 2.5 21.8182 16.324
      vertex -2.5 28.763 13.5412
    endloop
  endfacet
  facet normal -1.21519e-16 0.547274 0.836953
    outer loop
      vertex 2.5 15.668 20.3456
      vertex 2.5 21.8182 16.324
      vertex -2.5 21.8182 16.324
    endloop
  endfacet
  facet normal -1.21519e-16 0.547274 0.836953
    outer loop
      vertex -2.5 15.668 20.3456
      vertex 2.5 15.668 20.3456
      vertex -2.5 21.8182 16.324
    endloop
  endfacet
  facet normal -1.56974e-16 0.706948 0.707265
    outer loop
      vertex 2.5 10.5812 25.4301
      vertex 2.5 15.668 20.3456
      vertex -2.5 15.668 20.3456
    endloop
  endfacet
  facet normal -1.56974e-16 0.706948 0.707265
    outer loop
      vertex -2.5 10.5812 25.4301
      vertex 2.5 10.5812 25.4301
      vertex -2.5 15.668 20.3456
    endloop
  endfacet
  facet normal -1.86894e-16 0.841698 0.539949
    outer loop
      vertex 2.5 10.5812 25.4301
      vertex -2.5 10.5812 25.4301
      vertex 2.5 6.78017 31.3553
    endloop
  endfacet
  facet normal -1.86894e-16 0.841698 0.539949
    outer loop
      vertex 2.5 6.78017 31.3553
      vertex -2.5 10.5812 25.4301
      vertex -2.5 6.78017 31.3553
    endloop
  endfacet
  facet normal -2.08851e-16 0.940581 0.33957
    outer loop
      vertex 2.5 4.431 37.8623
      vertex 0.37082 4.7933 36.8587
      vertex 1.09994 4.431 37.8623
    endloop
  endfacet
  facet normal -2.08851e-16 0.940581 0.33957
    outer loop
      vertex 2.5 6.78017 31.3553
      vertex 0.37082 4.7933 36.8587
      vertex 2.5 4.431 37.8623
    endloop
  endfacet
  facet normal -2.08851e-16 0.940581 0.33957
    outer loop
      vertex -0.97082 4.63592 37.2947
      vertex 0.37082 4.7933 36.8587
      vertex 2.5 6.78017 31.3553
    endloop
  endfacet
  facet normal -2.08851e-16 0.940581 0.33957
    outer loop
      vertex -0.97082 4.63592 37.2947
      vertex 2.5 6.78017 31.3553
      vertex -2.5 6.78017 31.3553
    endloop
  endfacet
  facet normal -2.08851e-16 0.940581 0.33957
    outer loop
      vertex -0.97082 4.63592 37.2947
      vertex -2.5 6.78017 31.3553
      vertex -0.97082 4.431 37.8623
    endloop
  endfacet
  facet normal -2.08851e-16 0.940581 0.33957
    outer loop
      vertex -2.5 6.78017 31.3553
      vertex -2.5 4.431 37.8623
      vertex -0.97082 4.431 37.8623
    endloop
  endfacet
  facet normal -2.20546e-16 0.99325 0.115994
    outer loop
      vertex 2.5 4.431 37.8623
      vertex 1.2 4.41491 38
      vertex 2.5 4.18135 40
    endloop
  endfacet
  facet normal -2.20546e-16 0.99325 0.115994
    outer loop
      vertex 2.5 4.431 37.8623
      vertex 1.09994 4.431 37.8623
      vertex 1.2 4.41491 38
    endloop
  endfacet
  facet normal -2.20546e-16 0.99325 0.115994
    outer loop
      vertex 2.5 4.18135 40
      vertex 0.37082 4.28163 39.1413
      vertex -0.97082 4.33254 38.7053
    endloop
  endfacet
  facet normal -2.20546e-16 0.99325 0.115994
    outer loop
      vertex -0.97082 4.33254 38.7053
      vertex -0.97082 4.431 37.8623
      vertex -2.5 4.431 37.8623
    endloop
  endfacet
  facet normal -2.20546e-16 0.99325 0.115994
    outer loop
      vertex -0.97082 4.33254 38.7053
      vertex -2.5 4.431 37.8623
      vertex -2.5 4.18135 40
    endloop
  endfacet
  facet normal -2.20546e-16 0.99325 0.115994
    outer loop
      vertex -0.97082 4.33254 38.7053
      vertex -2.5 4.18135 40
      vertex 2.5 4.18135 40
    endloop
  endfacet
  facet normal -2.20546e-16 0.99325 0.115994
    outer loop
      vertex 0.37082 4.28163 39.1413
      vertex 2.5 4.18135 40
      vertex 1.2 4.41491 38
    endloop
  endfacet
  facet normal 0 0 1
    outer loop
      vertex -2.5 4.18135 40
      vertex -2.5 0 40
      vertex 2.5 0 40
    endloop
  endfacet
  facet normal 0 0 1
    outer loop
      vertex 2.5 4.18135 40
      vertex -2.5 4.18135 40
      vertex 2.5 0 40
    endloop
  endfacet
  facet normal 1 0 0
    outer loop
      vertex 2.5 51.237 13.5412
      vertex 2.5 0 0
      vertex 2.5 80 0
    endloop
  endfacet
  facet normal 1 0 0
    outer loop
      vertex 2.5 80 40
      vertex 2.5 75.8187 40
      vertex 2.5 80 0
    endloop
  endfacet
  facet normal 1 0 0
    outer loop
      vertex 2.5 75.8187 40
      vertex 2.5 75.569 37.8623
      vertex 2.5 80 0
    endloop
  endfacet
  facet normal 1 0 0
    outer loop
      vertex 2.5 75.569 37.8623
      vertex 2.5 73.2198 31.3553
      vertex 2.5 80 0
    endloop
  endfacet
  facet normal 1 0 0
    outer loop
      vertex 2.5 73.2198 31.3553
      vertex 2.5 69.4188 25.4301
      vertex 2.5 80 0
    endloop
  endfacet
  facet normal 1 0 0
    outer loop
      vertex 2.5 69.4188 25.4301
      vertex 2.5 64.332 20.3456
      vertex 2.5 80 0
    endloop
  endfacet
  facet normal 1 0 0
    outer loop
      vertex 2.5 64.332 20.3456
      vertex 2.5 58.1818 16.324
      vertex 2.5 80 0
    endloop
  endfacet
  facet normal 1 0 0
    outer loop
      vertex 2.5 43.801 12.1187
      vertex 2.5 0 0
      vertex 2.5 51.237 13.5412
    endloop
  endfacet
  facet normal 1 0 0
    outer loop
      vertex 2.5 36.199 12.1187
      vertex 2.5 0 0
      vertex 2.5 43.801 12.1187
    endloop
  endfacet
  facet normal 1 0 0
    outer loop
      vertex 2.5 28.763 13.5412
      vertex 2.5 0 0
      vertex 2.5 36.199 12.1187
    endloop
  endfacet
  facet normal 1 0 0
    outer loop
      vertex 2.5 21.8182 16.324
      vertex 2.5 0 0
      vertex 2.5 28.763 13.5412
    endloop
  endfacet
  facet normal 1 0 0
    outer loop
      vertex 2.5 15.668 20.3456
      vertex 2.5 0 0
      vertex 2.5 21.8182 16.324
    endloop
  endfacet
  facet normal 1 0 0
    outer loop
      vertex 2.5 4.431 37.8623
      vertex 2.5 4.18135 40
      vertex 2.5 0 40
    endloop
  endfacet
  facet normal 1 0 0
    outer loop
      vertex 2.5 10.5812 25.4301
      vertex 2.5 0 0
      vertex 2.5 15.668 20.3456
    endloop
  endfacet
  facet normal 1 0 0
    outer loop
      vertex 2.5 0 40
      vertex 2.5 0 0
      vertex 2.5 10.5812 25.4301
    endloop
  endfacet
  facet normal 1 0 0
    outer loop
      vertex 2.5 0 40
      vertex 2.5 10.5812 25.4301
      vertex 2.5 6.78017 31.3553
    endloop
  endfacet
  facet normal 1 0 0
    outer loop
      vertex 2.5 58.1818 16.324
      vertex 2.5 51.237 13.5412
      vertex 2.5 80 0
    endloop
  endfacet
  facet normal 1 0 0
    outer loop
      vertex 2.5 6.78017 31.3553
      vertex 2.5 4.431 37.8623
      vertex 2.5 0 40
    endloop
  endfacet
  facet normal 0.309017 -2.11177e-16 0.951056
    outer loop
      vertex 0.37082 0 36.8587
      vertex 0.37082 4.7933 36.8587
      vertex -0.97082 4.63592 37.2947
    endloop
  endfacet
  facet normal 0.309017 -2.11177e-16 0.951056
    outer loop
      vertex -0.97082 0 37.2947
      vertex 0.37082 0 36.8587
      vertex -0.97082 4.63592 37.2947
    endloop
  endfacet
  facet normal 1 0 0
    outer loop
      vertex -0.97082 4.63592 37.2947
      vertex -0.97082 4.431 37.8623
      vertex -0.97082 0 38.7053
    endloop
  endfacet
  facet normal 1 0 0
    outer loop
      vertex -0.97082 0 38.7053
      vertex -0.97082 4.431 37.8623
      vertex -0.97082 4.33254 38.7053
    endloop
  endfacet
  facet normal 1 0 0
    outer loop
      vertex -0.97082 4.63592 37.2947
      vertex -0.97082 0 38.7053
      vertex -0.97082 0 37.2947
    endloop
  endfacet
  facet normal -0.809017 -1.30515e-16 0.587785
    outer loop
      vertex 1.2 4.41491 38
      vertex 1.09994 4.431 37.8623
      vertex 1.2 0 38
    endloop
  endfacet
  facet normal -0.809017 -1.30515e-16 0.587785
    outer loop
      vertex 1.2 0 38
      vertex 1.09994 4.431 37.8623
      vertex 0.37082 4.7933 36.8587
    endloop
  endfacet
  facet normal -0.809017 -1.30515e-16 0.587785
    outer loop
      vertex 1.2 0 38
      vertex 0.37082 4.7933 36.8587
      vertex 0.37082 0 36.8587
    endloop
  endfacet
  facet normal -0.809017 1.30515e-16 -0.587785
    outer loop
      vertex 1.2 4.41491 38
      vertex 1.2 0 38
      vertex 0.37082 4.28163 39.1413
    endloop
  endfacet
  facet normal -0.809017 1.30515e-16 -0.587785
    outer loop
      vertex 0.37082 4.28163 39.1413
      vertex 1.2 0 38
      vertex 0.37082 0 39.1413
    endloop
  endfacet
  facet normal 0.309017 2.11177e-16 -0.951056
    outer loop
      vertex 0.37082 4.28163 39.1413
      vertex 0.37082 0 39.1413
      vertex -0.97082 4.33254 38.7053
    endloop
  endfacet
  facet normal 0.309017 2.11177e-16 -0.951056
    outer loop
      vertex -0.97082 4.33254 38.7053
      vertex 0.37082 0 39.1413
      vertex -0.97082 0 38.7053
    endloop
  endfacet
  facet normal 0.309017 2.11177e-16 -0.951056
    outer loop
      vertex 0.37082 80 39.1413
      vertex 0.37082 75.7184 39.1413
      vertex -0.97082 80 38.7053
    endloop
  endfacet
  facet normal 0.309017 2.11177e-16 -0.951056
    outer loop
      vertex -0.97082 80 38.7053
      vertex 0.37082 75.7184 39.1413
      vertex -0.97082 75.6675 38.7053
    endloop
  endfacet
  facet normal 1 0 0
    outer loop
      vertex -0.97082 80 37.2947
      vertex -0.97082 80 38.7053
      vertex -0.97082 75.6675 38.7053
    endloop
  endfacet
  facet normal 1 0 0
    outer loop
      vertex -0.97082 75.3641 37.2947
      vertex -0.97082 80 37.2947
      vertex -0.97082 75.569 37.8623
    endloop
  endfacet
  facet normal 1 0 0
    outer loop
      vertex -0.97082 75.569 37.8623
      vertex -0.97082 80 37.2947
      vertex -0.97082 75.6675 38.7053
    endloop
  endfacet
  facet normal -0.809017 1.30515e-16 -0.587785
    outer loop
      vertex 1.2 80 38
      vertex 1.2 75.5851 38
      vertex 0.37082 80 39.1413
    endloop
  endfacet
  facet normal -0.809017 1.30515e-16 -0.587785
    outer loop
      vertex 0.37082 80 39.1413
      vertex 1.2 75.5851 38
      vertex 0.37082 75.7184 39.1413
    endloop
  endfacet
  facet normal -0.809017 -1.30515e-16 0.587785
    outer loop
      vertex 1.2 75.5851 38
      vertex 1.2 80 38
      vertex 1.09994 75.569 37.8623
    endloop
  endfacet
  facet normal -0.809017 -1.30515e-16 0.587785
    outer loop
      vertex 1.09994 75.569 37.8623
      vertex 1.2 80 38
      vertex 0.37082 80 36.8587
    endloop
  endfacet
  facet normal -0.809017 -1.30515e-16 0.587785
    outer loop
      vertex 1.09994 75.569 37.8623
      vertex 0.37082 80 36.8587
      vertex 0.37082 75.2067 36.8587
    endloop
  endfacet
  facet normal 0.309017 -2.11177e-16 0.951056
    outer loop
      vertex 0.37082 75.2067 36.8587
      vertex 0.37082 80 36.8587
      vertex -0.97082 80 37.2947
    endloop
  endfacet
  facet normal 0.309017 -2.11177e-16 0.951056
    outer loop
      vertex -0.97082 75.3641 37.2947
      vertex 0.37082 75.2067 36.8587
      vertex -0.97082 80 37.2947
    endloop
  endfacet
  facet normal -1 0 0
    outer loop
      vertex 5 0 0
      vertex 5 0 2
      vertex 5 80 0
    endloop
  endfacet
  facet normal -1 0 0
    outer loop
      vertex 5 80 0
      vertex 5 0 2
      vertex 5 80 2
    endloop
  endfacet
  facet normal 0 -1 0
    outer loop
      vertex 5 0 2
      vertex 5 0 0
      vertex 42.5 0 0
    endloop
  endfacet
  facet normal 0 -1 0
    outer loop
      vertex 42.5 0 2
      vertex 5 0 2
      vertex 42.5 0 0
    endloop
  endfacet
  facet normal 0 0 -1
    outer loop
      vertex 5 0 0
      vertex 5 80 0
      vertex 42.5 0 0
    endloop
  endfacet
  facet normal 0 0 -1
    outer loop
      vertex 42.5 0 0
      vertex 5 80 0
      vertex 7 80 0
    endloop
  endfacet
  facet normal 0 0 -1
    outer loop
      vertex 42.5 0 0
      vertex 7 80 0
      vertex 39.234 32.4056 0
    endloop
  endfacet
  facet normal 0 0 -1
    outer loop
      vertex 42.5 0 0
      vertex 39.234 32.4056 0
      vertex 42.5 2 0
    endloop
  endfacet
  facet normal 0 1 0
    outer loop
      vertex 5 80 0
      vertex 5 80 2
      vertex 7 80 0
    endloop
  endfacet
  facet normal 0 1 0
    outer loop
      vertex 7 80 0.4
      vertex 5 80 2
      vertex 7 80 2
    endloop
  endfacet
  facet normal 0 1 0
    outer loop
      vertex 7 80 0
      vertex 5 80 2
      vertex 7 80 0.4
    endloop
  endfacet
  facet normal 0 0 1
    outer loop
      vertex 14.0976 2.66454e-16 2
      vertex 5 0 2
      vertex 42.5 0 2
    endloop
  endfacet
  facet normal 0 0 1
    outer loop
      vertex 8.37143 2.66454e-16 2
      vertex 8.37143 2 2
      vertex 5 0 2
    endloop
  endfacet
  facet normal 0 0 1
    outer loop
      vertex 14.0976 2 2
      vertex 14.0976 2.66454e-16 2
      vertex 42.5 0 2
    endloop
  endfacet
  facet normal 0 0 1
    outer loop
      vertex 8.37143 2.66454e-16 2
      vertex 5 0 2
      vertex 14.0976 2.66454e-16 2
    endloop
  endfacet
  facet normal 0 0 1
    outer loop
      vertex 7 2 2
      vertex 5 0 2
      vertex 8.37143 2 2
    endloop
  endfacet
  facet normal 0 0 1
    outer loop
      vertex 5 80 2
      vertex 5 0 2
      vertex 7 2 2
    endloop
  endfacet
  facet normal 0 0 1
    outer loop
      vertex 42.5 2 2
      vertex 14.0976 2 2
      vertex 42.5 0 2
    endloop
  endfacet
  facet normal 0 0 1
    outer loop
      vertex 7 2 2
      vertex 7 80 2
      vertex 5 80 2
    endloop
  endfacet
  facet normal 1 0 0
    outer loop
      vertex 42.5 0 2
      vertex 42.5 0 0
      vertex 42.5 2 0
    endloop
  endfacet
  facet normal 1 0 0
    outer loop
      vertex 42.5 2 2
      vertex 42.5 0 2
      vertex 42.5 2 0.4
    endloop
  endfacet
  facet normal 1 0 0
    outer loop
      vertex 42.5 2 0.4
      vertex 42.5 0 2
      vertex 42.5 2 0
    endloop
  endfacet
  facet normal 0.994281 0.106799 0
    outer loop
      vertex 42.5 2 0
      vertex 39.234 32.4056 0
      vertex 39.234 32.4056 0.4
    endloop
  endfacet
  facet normal 0.994281 0.106799 0
    outer loop
      vertex 42.5 2 0.4
      vertex 42.5 2 0
      vertex 39.234 32.4056 0.4
    endloop
  endfacet
  facet normal 0.827978 0.56076 0
    outer loop
      vertex 39.234 32.4056 0
      vertex 7 80 0
      vertex 7 80 0.4
    endloop
  endfacet
  facet normal 0.827978 0.56076 0
    outer loop
      vertex 39.234 32.4056 0.4
      vertex 39.234 32.4056 0
      vertex 7 80 0.4
    endloop
  endfacet
  facet normal 1 0 0
    outer loop
      vertex 7 2 2
      vertex 7 2 1
      vertex 7 3 1
    endloop
  endfacet
  facet normal 1 0 0
    outer loop
      vertex 7 80 0.4
      vertex 7 2 2
      vertex 7 3 1
    endloop
  endfacet
  facet normal 1 0 0
    outer loop
      vertex 7 3 0.4
      vertex 7 80 0.4
      vertex 7 3 1
    endloop
  endfacet
  facet normal 1 0 0
    outer loop
      vertex 7 80 0.4
      vertex 7 80 2
      vertex 7 2 2
    endloop
  endfacet
  facet normal 0 0 1
    outer loop
      vertex 7 80 0.4
      vertex 7 3 0.4
      vertex 37.8198 33.8198 0.4
    endloop
  endfacet
  facet normal 0 0 1
    outer loop
      vertex 39.234 32.4056 0.4
      vertex 7 80 0.4
      vertex 37.8198 33.8198 0.4
    endloop
  endfacet
  facet normal 0 1 0
    outer loop
      vertex 7 2 1
      vertex 7 2 2
      vertex 8.82843 2 1
    endloop
  endfacet
  facet normal 0 1 0
    outer loop
      vertex 8.82843 2 1
      vertex 7 2 2
      vertex 8.37143 2 2
    endloop
  endfacet
  facet normal 0 1 0
    outer loop
      vertex 8.82843 2 1
      vertex 8.37143 2 2
      vertex 9.15445 2 0.781601
    endloop
  endfacet
  facet normal 0 1 0
    outer loop
      vertex 9.15445 2 0.781601
      vertex 9.99004 2 0.4
      vertex 8.82843 2 0.4
    endloop
  endfacet
  facet normal 0 1 0
    outer loop
      vertex 8.82843 2 1
      vertex 9.15445 2 0.781601
      vertex 8.82843 2 0.4
    endloop
  endfacet
  facet normal -0.841253 1.20046e-16 -0.540641
    outer loop
      vertex 8.17962 2.00183e-16 2.29846
      vertex 8.17962 2 2.29846
      vertex 8.37143 2.66454e-16 2
    endloop
  endfacet
  facet normal -0.841253 1.20046e-16 -0.540641
    outer loop
      vertex 8.37143 2 2
      vertex 8.17962 2 2.29846
      vertex 9.15445 2 0.781601
    endloop
  endfacet
  facet normal -0.841253 1.20046e-16 -0.540641
    outer loop
      vertex 8.37143 2.66454e-16 2
      vertex 8.17962 2 2.29846
      vertex 8.37143 2 2
    endloop
  endfacet
  facet normal 0 -1 -2.22045e-16
    outer loop
      vertex 9.15445 -5.36992e-16 5.6184
      vertex 8.17962 -2.00183e-16 4.10154
      vertex 8.17962 2.00183e-16 2.29846
    endloop
  endfacet
  facet normal 0 -1 -2.22045e-16
    outer loop
      vertex 10.2792 1.56617e-16 2.49466
      vertex 9.15445 -5.36992e-16 5.6184
      vertex 8.37143 2.66454e-16 2
    endloop
  endfacet
  facet normal 0 -1 -2.22045e-16
    outer loop
      vertex 8.37143 2.66454e-16 2
      vertex 9.15445 -5.36992e-16 5.6184
      vertex 8.17962 2.00183e-16 2.29846
    endloop
  endfacet
  facet normal 0 -1 -2.22045e-16
    outer loop
      vertex 13.942 -3.84148e-16 4.93005
      vertex 9.15445 -5.36992e-16 5.6184
      vertex 14.45 0 3.2
    endloop
  endfacet
  facet normal 0 -1 -2.22045e-16
    outer loop
      vertex 12.5793 -6.46332e-16 6.11082
      vertex 9.15445 -5.36992e-16 5.6184
      vertex 13.942 -3.84148e-16 4.93005
    endloop
  endfacet
  facet normal 0 -1 -2.22045e-16
    outer loop
      vertex 10.7946 -7.03311e-16 6.36743
      vertex 9.15445 -5.36992e-16 5.6184
      vertex 12.5793 -6.46332e-16 6.11082
    endloop
  endfacet
  facet normal 0 -1 -2.22045e-16
    outer loop
      vertex 11.6208 2.53412e-16 2.05873
      vertex 10.2792 1.56617e-16 2.49466
      vertex 8.37143 2.66454e-16 2
    endloop
  endfacet
  facet normal 0 -1 -2.22045e-16
    outer loop
      vertex 10.2792 -1.56617e-16 3.90534
      vertex 9.15445 -5.36992e-16 5.6184
      vertex 10.2792 1.56617e-16 2.49466
    endloop
  endfacet
  facet normal 0 -1 -2.22045e-16
    outer loop
      vertex 12.45 0 3.2
      vertex 11.6208 2.53412e-16 2.05873
      vertex 14.0976 2.66454e-16 2
    endloop
  endfacet
  facet normal 0 -1 -2.22045e-16
    outer loop
      vertex 14.45 0 3.2
      vertex 11.6208 -2.53412e-16 4.34127
      vertex 14.0976 2.66454e-16 2
    endloop
  endfacet
  facet normal 0 -1 -2.22045e-16
    outer loop
      vertex 14.45 0 3.2
      vertex 9.15445 -5.36992e-16 5.6184
      vertex 11.6208 -2.53412e-16 4.34127
    endloop
  endfacet
  facet normal 0 -1 -2.22045e-16
    outer loop
      vertex 14.0976 2.66454e-16 2
      vertex 11.6208 2.53412e-16 2.05873
      vertex 8.37143 2.66454e-16 2
    endloop
  endfacet
  facet normal 0 -1 -2.22045e-16
    outer loop
      vertex 11.6208 -2.53412e-16 4.34127
      vertex 12.45 0 3.2
      vertex 14.0976 2.66454e-16 2
    endloop
  endfacet
  facet normal 0 -1 -2.22045e-16
    outer loop
      vertex 10.2792 -1.56617e-16 3.90534
      vertex 11.6208 -2.53412e-16 4.34127
      vertex 9.15445 -5.36992e-16 5.6184
    endloop
  endfacet
  facet normal 0.959493 6.25572e-17 -0.281733
    outer loop
      vertex 14.45 0 3.2
      vertex 14.0976 2 2
      vertex 14.45 2 3.2
    endloop
  endfacet
  facet normal 0.959493 6.25572e-17 -0.281733
    outer loop
      vertex 14.45 2 3.2
      vertex 14.0976 2 2
      vertex 13.942 2 1.46995
    endloop
  endfacet
  facet normal 0.959493 6.25572e-17 -0.281733
    outer loop
      vertex 14.0976 2.66454e-16 2
      vertex 14.0976 2 2
      vertex 14.45 0 3.2
    endloop
  endfacet
  facet normal 0 1 0
    outer loop
      vertex 12.7072 2 0.4
      vertex 13.942 2 1.46995
      vertex 42.5 2 0.4
    endloop
  endfacet
  facet normal 0 1 0
    outer loop
      vertex 42.5 2 0.4
      vertex 13.942 2 1.46995
      vertex 14.0976 2 2
    endloop
  endfacet
  facet normal 0 1 0
    outer loop
      vertex 42.5 2 0.4
      vertex 14.0976 2 2
      vertex 42.5 2 2
    endloop
  endfacet
  facet normal 0 0 1
    outer loop
      vertex 39.234 32.4056 0.4
      vertex 8.82843 2 0.4
      vertex 9.99004 2 0.4
    endloop
  endfacet
  facet normal 0 0 1
    outer loop
      vertex 42.5 2 0.4
      vertex 39.234 32.4056 0.4
      vertex 12.7072 2 0.4
    endloop
  endfacet
  facet normal 0 0 1
    outer loop
      vertex 9.99004 2 0.4
      vertex 12.7072 2 0.4
      vertex 39.234 32.4056 0.4
    endloop
  endfacet
  facet normal 0.707107 -0.707107 0
    outer loop
      vertex 8.82843 2 1
      vertex 8.82843 2 0.4
      vertex 39.234 32.4056 0.4
    endloop
  endfacet
  facet normal 0.707107 -0.707107 0
    outer loop
      vertex 39.234 32.4056 1
      vertex 8.82843 2 1
      vertex 39.234 32.4056 0.4
    endloop
  endfacet
  facet normal 0.707107 0.707107 0
    outer loop
      vertex 39.234 32.4056 0.4
      vertex 37.8198 33.8198 0.4
      vertex 37.8198 33.8198 1
    endloop
  endfacet
  facet normal 0.707107 0.707107 0
    outer loop
      vertex 39.234 32.4056 1
      vertex 39.234 32.4056 0.4
      vertex 37.8198 33.8198 1
    endloop
  endfacet
  facet normal -0.707107 0.707107 0
    outer loop
      vertex 7 3 0.4
      vertex 7 3 1
      vertex 37.8198 33.8198 0.4
    endloop
  endfacet
  facet normal -0.707107 0.707107 0
    outer loop
      vertex 37.8198 33.8198 0.4
      vertex 7 3 1
      vertex 37.8198 33.8198 1
    endloop
  endfacet
  facet normal 0 0 1
    outer loop
      vertex 7 3 1
      vertex 7 2 1
      vertex 8.82843 2 1
    endloop
  endfacet
  facet normal 0 0 1
    outer loop
      vertex 37.8198 33.8198 1
      vertex 7 3 1
      vertex 39.234 32.4056 1
    endloop
  endfacet
  facet normal 0 0 1
    outer loop
      vertex 39.234 32.4056 1
      vertex 7 3 1
      vertex 8.82843 2 1
    endloop
  endfacet
  facet normal 0 1 2.22045e-16
    outer loop
      vertex 8.17962 2 4.10154
      vertex 9.15445 2 5.6184
      vertex 8.17962 2 2.29846
    endloop
  endfacet
  facet normal 0 1 2.22045e-16
    outer loop
      vertex 8.17962 2 2.29846
      vertex 9.15445 2 5.6184
      vertex 10.7946 2 6.36743
    endloop
  endfacet
  facet normal 0 1 2.22045e-16
    outer loop
      vertex 8.17962 2 2.29846
      vertex 10.7946 2 6.36743
      vertex 12.5793 2 6.11082
    endloop
  endfacet
  facet normal 0 1 2.22045e-16
    outer loop
      vertex 11.6208 2 4.34127
      vertex 12.5793 2 6.11082
      vertex 13.942 2 4.93005
    endloop
  endfacet
  facet normal 0 1 2.22045e-16
    outer loop
      vertex 12.45 2 3.2
      vertex 13.942 2 4.93005
      vertex 14.45 2 3.2
    endloop
  endfacet
  facet normal 0 1 2.22045e-16
    outer loop
      vertex 8.17962 2 2.29846
      vertex 13.942 2 1.46995
      vertex 12.7072 2 0.4
    endloop
  endfacet
  facet normal 0 1 2.22045e-16
    outer loop
      vertex 8.17962 2 2.29846
      vertex 12.7072 2 0.4
      vertex 9.99004 2 0.4
    endloop
  endfacet
  facet normal 0 1 2.22045e-16
    outer loop
      vertex 8.17962 2 2.29846
      vertex 9.99004 2 0.4
      vertex 9.15445 2 0.781601
    endloop
  endfacet
  facet normal 0 1 2.22045e-16
    outer loop
      vertex 8.17962 2 2.29846
      vertex 12.5793 2 6.11082
      vertex 10.2792 2 3.90534
    endloop
  endfacet
  facet normal 0 1 2.22045e-16
    outer loop
      vertex 12.45 2 3.2
      vertex 14.45 2 3.2
      vertex 13.942 2 1.46995
    endloop
  endfacet
  facet normal 0 1 2.22045e-16
    outer loop
      vertex 8.17962 2 2.29846
      vertex 10.2792 2 2.49466
      vertex 11.6208 2 2.05873
    endloop
  endfacet
  facet normal 0 1 2.22045e-16
    outer loop
      vertex 8.17962 2 2.29846
      vertex 11.6208 2 2.05873
      vertex 13.942 2 1.46995
    endloop
  endfacet
  facet normal 0 1 2.22045e-16
    outer loop
      vertex 12.45 2 3.2
      vertex 13.942 2 1.46995
      vertex 11.6208 2 2.05873
    endloop
  endfacet
  facet normal 0 1 2.22045e-16
    outer loop
      vertex 10.2792 2 3.90534
      vertex 12.5793 2 6.11082
      vertex 11.6208 2 4.34127
    endloop
  endfacet
  facet normal 0 1 2.22045e-16
    outer loop
      vertex 10.2792 2 2.49466
      vertex 8.17962 2 2.29846
      vertex 10.2792 2 3.90534
    endloop
  endfacet
  facet normal 0 1 2.22045e-16
    outer loop
      vertex 11.6208 2 4.34127
      vertex 13.942 2 4.93005
      vertex 12.45 2 3.2
    endloop
  endfacet
  facet normal -1 0 0
    outer loop
      vertex 8.17962 -2.00183e-16 4.10154
      vertex 8.17962 2 4.10154
      vertex 8.17962 2.00183e-16 2.29846
    endloop
  endfacet
  facet normal -1 0 0
    outer loop
      vertex 8.17962 2.00183e-16 2.29846
      vertex 8.17962 2 4.10154
      vertex 8.17962 2 2.29846
    endloop
  endfacet
  facet normal -0.841253 -1.20046e-16 0.540641
    outer loop
      vertex 8.17962 -2.00183e-16 4.10154
      vertex 9.15445 -5.36992e-16 5.6184
      vertex 8.17962 2 4.10154
    endloop
  endfacet
  facet normal -0.841253 -1.20046e-16 0.540641
    outer loop
      vertex 8.17962 2 4.10154
      vertex 9.15445 -5.36992e-16 5.6184
      vertex 9.15445 2 5.6184
    endloop
  endfacet
  facet normal -0.415415 -2.01979e-16 0.909632
    outer loop
      vertex 9.15445 2 5.6184
      vertex 9.15445 -5.36992e-16 5.6184
      vertex 10.7946 -7.03311e-16 6.36743
    endloop
  endfacet
  facet normal -0.415415 -2.01979e-16 0.909632
    outer loop
      vertex 10.7946 2 6.36743
      vertex 9.15445 2 5.6184
      vertex 10.7946 -7.03311e-16 6.36743
    endloop
  endfacet
  facet normal 0.142315 -2.19784e-16 0.989821
    outer loop
      vertex 10.7946 2 6.36743
      vertex 10.7946 -7.03311e-16 6.36743
      vertex 12.5793 -6.46332e-16 6.11082
    endloop
  endfacet
  facet normal 0.142315 -2.19784e-16 0.989821
    outer loop
      vertex 12.5793 2 6.11082
      vertex 10.7946 2 6.36743
      vertex 12.5793 -6.46332e-16 6.11082
    endloop
  endfacet
  facet normal 0.654861 -1.6781e-16 0.75575
    outer loop
      vertex 12.5793 2 6.11082
      vertex 12.5793 -6.46332e-16 6.11082
      vertex 13.942 -3.84148e-16 4.93005
    endloop
  endfacet
  facet normal 0.654861 -1.6781e-16 0.75575
    outer loop
      vertex 13.942 2 4.93005
      vertex 12.5793 2 6.11082
      vertex 13.942 -3.84148e-16 4.93005
    endloop
  endfacet
  facet normal 0.959493 -6.25572e-17 0.281733
    outer loop
      vertex 13.942 2 4.93005
      vertex 13.942 -3.84148e-16 4.93005
      vertex 14.45 0 3.2
    endloop
  endfacet
  facet normal 0.959493 -6.25572e-17 0.281733
    outer loop
      vertex 14.45 2 3.2
      vertex 13.942 2 4.93005
      vertex 14.45 0 3.2
    endloop
  endfacet
  facet normal 0.309017 -2.11177e-16 0.951056
    outer loop
      vertex 11.6208 2.53412e-16 2.05873
      vertex 11.6208 2 2.05873
      vertex 10.2792 2 2.49466
    endloop
  endfacet
  facet normal 0.309017 -2.11177e-16 0.951056
    outer loop
      vertex 10.2792 1.56617e-16 2.49466
      vertex 11.6208 2.53412e-16 2.05873
      vertex 10.2792 2 2.49466
    endloop
  endfacet
  facet normal 1 0 0
    outer loop
      vertex 10.2792 1.56617e-16 2.49466
      vertex 10.2792 2 2.49466
      vertex 10.2792 2 3.90534
    endloop
  endfacet
  facet normal 1 0 0
    outer loop
      vertex 10.2792 -1.56617e-16 3.90534
      vertex 10.2792 1.56617e-16 2.49466
      vertex 10.2792 2 3.90534
    endloop
  endfacet
  facet normal -0.809017 -1.30515e-16 0.587785
    outer loop
      vertex 12.45 2 3.2
      vertex 11.6208 2 2.05873
      vertex 12.45 0 3.2
    endloop
  endfacet
  facet normal -0.809017 -1.30515e-16 0.587785
    outer loop
      vertex 12.45 0 3.2
      vertex 11.6208 2 2.05873
      vertex 11.6208 2.53412e-16 2.05873
    endloop
  endfacet
  facet normal -0.809017 1.30515e-16 -0.587785
    outer loop
      vertex 12.45 2 3.2
      vertex 12.45 0 3.2
      vertex 11.6208 2 4.34127
    endloop
  endfacet
  facet normal -0.809017 1.30515e-16 -0.587785
    outer loop
      vertex 11.6208 2 4.34127
      vertex 12.45 0 3.2
      vertex 11.6208 -2.53412e-16 4.34127
    endloop
  endfacet
  facet normal 0.309017 2.11177e-16 -0.951056
    outer loop
      vertex 11.6208 2 4.34127
      vertex 11.6208 -2.53412e-16 4.34127
      vertex 10.2792 2 3.90534
    endloop
  endfacet
  facet normal 0.309017 2.11177e-16 -0.951056
    outer loop
      vertex 10.2792 2 3.90534
      vertex 11.6208 -2.53412e-16 4.34127
      vertex 10.2792 -1.56617e-16 3.90534
    endloop
  endfacet
  facet normal -1 0 0
    outer loop
      vertex -42.5 0 0
      vertex -42.5 0 2
      vertex -42.5 2 0
    endloop
  endfacet
  facet normal -1 0 0
    outer loop
      vertex -42.5 2 0.4
      vertex -42.5 0 2
      vertex -42.5 2 2
    endloop
  endfacet
  facet normal -1 0 0
    outer loop
      vertex -42.5 2 0
      vertex -42.5 0 2
      vertex -42.5 2 0.4
    endloop
  endfacet
  facet normal 0 -1 0
    outer loop
      vertex -42.5 0 2
      vertex -42.5 0 0
      vertex -5 0 0
    endloop
  endfacet
  facet normal 0 -1 0
    outer loop
      vertex -5 0 2
      vertex -42.5 0 2
      vertex -5 0 0
    endloop
  endfacet
  facet normal 0 0 -1
    outer loop
      vertex -42.5 0 0
      vertex -42.5 2 0
      vertex -5 0 0
    endloop
  endfacet
  facet normal 0 0 -1
    outer loop
      vertex -5 0 0
      vertex -42.5 2 0
      vertex -39.234 32.4056 0
    endloop
  endfacet
  facet normal 0 0 -1
    outer loop
      vertex -5 0 0
      vertex -39.234 32.4056 0
      vertex -7 80 0
    endloop
  endfacet
  facet normal 0 0 -1
    outer loop
      vertex -5 0 0
      vertex -7 80 0
      vertex -5 80 0
    endloop
  endfacet
  facet normal -0.994281 0.106799 0
    outer loop
      vertex -42.5 2 0
      vertex -42.5 2 0.4
      vertex -39.234 32.4056 0
    endloop
  endfacet
  facet normal -0.994281 0.106799 0
    outer loop
      vertex -39.234 32.4056 0
      vertex -42.5 2 0.4
      vertex -39.234 32.4056 0.4
    endloop
  endfacet
  facet normal 0 0 1
    outer loop
      vertex -39.234 32.4056 0.4
      vertex -42.5 2 0.4
      vertex -12.7072 2 0.4
    endloop
  endfacet
  facet normal 0 0 1
    outer loop
      vertex -9.99004 2 0.4
      vertex -39.234 32.4056 0.4
      vertex -12.7072 2 0.4
    endloop
  endfacet
  facet normal 0 0 1
    outer loop
      vertex -8.82843 2 0.4
      vertex -39.234 32.4056 0.4
      vertex -9.99004 2 0.4
    endloop
  endfacet
  facet normal 0 1 0
    outer loop
      vertex -14.0976 2 2
      vertex -13.942 2 1.46995
      vertex -42.5 2 2
    endloop
  endfacet
  facet normal 0 1 0
    outer loop
      vertex -42.5 2 2
      vertex -13.942 2 1.46995
      vertex -12.7072 2 0.4
    endloop
  endfacet
  facet normal 0 1 0
    outer loop
      vertex -42.5 2 2
      vertex -12.7072 2 0.4
      vertex -42.5 2 0.4
    endloop
  endfacet
  facet normal 0 0 1
    outer loop
      vertex -5 0 2
      vertex -5 80 2
      vertex -7 80 2
    endloop
  endfacet
  facet normal 0 0 1
    outer loop
      vertex -8.37143 2 2
      vertex -5 0 2
      vertex -7 2 2
    endloop
  endfacet
  facet normal 0 0 1
    outer loop
      vertex -7 2 2
      vertex -5 0 2
      vertex -7 80 2
    endloop
  endfacet
  facet normal 0 0 1
    outer loop
      vertex -8.37143 2.66454e-16 2
      vertex -5 0 2
      vertex -8.37143 2 2
    endloop
  endfacet
  facet normal 0 0 1
    outer loop
      vertex -14.0976 2.66454e-16 2
      vertex -5 0 2
      vertex -8.37143 2.66454e-16 2
    endloop
  endfacet
  facet normal 0 0 1
    outer loop
      vertex -42.5 0 2
      vertex -5 0 2
      vertex -14.0976 2.66454e-16 2
    endloop
  endfacet
  facet normal 0 0 1
    outer loop
      vertex -42.5 2 2
      vertex -14.0976 2.66454e-16 2
      vertex -14.0976 2 2
    endloop
  endfacet
  facet normal 0 0 1
    outer loop
      vertex -42.5 0 2
      vertex -14.0976 2.66454e-16 2
      vertex -42.5 2 2
    endloop
  endfacet
  facet normal 1 0 0
    outer loop
      vertex -5 0 2
      vertex -5 0 0
      vertex -5 80 0
    endloop
  endfacet
  facet normal 1 0 0
    outer loop
      vertex -5 80 2
      vertex -5 0 2
      vertex -5 80 0
    endloop
  endfacet
  facet normal 0 1 0
    outer loop
      vertex -7 80 0
      vertex -7 80 0.4
      vertex -5 80 0
    endloop
  endfacet
  facet normal 0 1 0
    outer loop
      vertex -5 80 0
      vertex -7 80 0.4
      vertex -7 80 2
    endloop
  endfacet
  facet normal 0 1 0
    outer loop
      vertex -5 80 0
      vertex -7 80 2
      vertex -5 80 2
    endloop
  endfacet
  facet normal -0.827978 0.56076 0
    outer loop
      vertex -39.234 32.4056 0
      vertex -39.234 32.4056 0.4
      vertex -7 80 0
    endloop
  endfacet
  facet normal -0.827978 0.56076 0
    outer loop
      vertex -7 80 0
      vertex -39.234 32.4056 0.4
      vertex -7 80 0.4
    endloop
  endfacet
  facet normal 0 0 1
    outer loop
      vertex -7 80 0.4
      vertex -39.234 32.4056 0.4
      vertex -37.8198 33.8198 0.4
    endloop
  endfacet
  facet normal 0 0 1
    outer loop
      vertex -7 3 0.4
      vertex -7 80 0.4
      vertex -37.8198 33.8198 0.4
    endloop
  endfacet
  facet normal -0.707107 0.707107 0
    outer loop
      vertex -37.8198 33.8198 1
      vertex -37.8198 33.8198 0.4
      vertex -39.234 32.4056 1
    endloop
  endfacet
  facet normal -0.707107 0.707107 0
    outer loop
      vertex -39.234 32.4056 1
      vertex -37.8198 33.8198 0.4
      vertex -39.234 32.4056 0.4
    endloop
  endfacet
  facet normal -0.707107 -0.707107 0
    outer loop
      vertex -8.82843 2 0.4
      vertex -8.82843 2 1
      vertex -39.234 32.4056 1
    endloop
  endfacet
  facet normal -0.707107 -0.707107 0
    outer loop
      vertex -39.234 32.4056 0.4
      vertex -8.82843 2 0.4
      vertex -39.234 32.4056 1
    endloop
  endfacet
  facet normal 0 1 0
    outer loop
      vertex -8.82843 2 0.4
      vertex -9.15445 2 0.781601
      vertex -8.82843 2 1
    endloop
  endfacet
  facet normal 0 1 0
    outer loop
      vertex -8.37143 2 2
      vertex -7 2 2
      vertex -8.82843 2 1
    endloop
  endfacet
  facet normal 0 1 0
    outer loop
      vertex -8.37143 2 2
      vertex -8.82843 2 1
      vertex -9.15445 2 0.781601
    endloop
  endfacet
  facet normal 0 1 0
    outer loop
      vertex -9.15445 2 0.781601
      vertex -8.82843 2 0.4
      vertex -9.99004 2 0.4
    endloop
  endfacet
  facet normal 0 1 0
    outer loop
      vertex -8.82843 2 1
      vertex -7 2 2
      vertex -7 2 1
    endloop
  endfacet
  facet normal 0 1 2.22045e-16
    outer loop
      vertex -12.5793 2 6.11082
      vertex -10.7946 2 6.36743
      vertex -13.942 2 4.93005
    endloop
  endfacet
  facet normal 0 1 2.22045e-16
    outer loop
      vertex -13.942 2 4.93005
      vertex -10.7946 2 6.36743
      vertex -9.15445 2 5.6184
    endloop
  endfacet
  facet normal 0 1 2.22045e-16
    outer loop
      vertex -13.942 2 4.93005
      vertex -9.15445 2 5.6184
      vertex -8.17962 2 4.10154
    endloop
  endfacet
  facet normal 0 1 2.22045e-16
    outer loop
      vertex -10.2792 2 3.90534
      vertex -8.17962 2 4.10154
      vertex -8.17962 2 2.29846
    endloop
  endfacet
  facet normal 0 1 2.22045e-16
    outer loop
      vertex -10.2792 2 2.49466
      vertex -8.17962 2 2.29846
      vertex -9.15445 2 0.781601
    endloop
  endfacet
  facet normal 0 1 2.22045e-16
    outer loop
      vertex -10.2792 2 2.49466
      vertex -9.99004 2 0.4
      vertex -11.6208 2 2.05873
    endloop
  endfacet
  facet normal 0 1 2.22045e-16
    outer loop
      vertex -11.6208 2 2.05873
      vertex -9.99004 2 0.4
      vertex -12.7072 2 0.4
    endloop
  endfacet
  facet normal 0 1 2.22045e-16
    outer loop
      vertex -13.942 2 4.93005
      vertex -12.7072 2 0.4
      vertex -13.942 2 1.46995
    endloop
  endfacet
  facet normal 0 1 2.22045e-16
    outer loop
      vertex -13.942 2 4.93005
      vertex -13.942 2 1.46995
      vertex -14.45 2 3.2
    endloop
  endfacet
  facet normal 0 1 2.22045e-16
    outer loop
      vertex -10.2792 2 2.49466
      vertex -9.15445 2 0.781601
      vertex -9.99004 2 0.4
    endloop
  endfacet
  facet normal 0 1 2.22045e-16
    outer loop
      vertex -13.942 2 4.93005
      vertex -12.45 2 3.2
      vertex -12.7072 2 0.4
    endloop
  endfacet
  facet normal 0 1 2.22045e-16
    outer loop
      vertex -12.45 2 3.2
      vertex -11.6208 2 2.05873
      vertex -12.7072 2 0.4
    endloop
  endfacet
  facet normal 0 1 2.22045e-16
    outer loop
      vertex -11.6208 2 4.34127
      vertex -8.17962 2 4.10154
      vertex -10.2792 2 3.90534
    endloop
  endfacet
  facet normal 0 1 2.22045e-16
    outer loop
      vertex -13.942 2 4.93005
      vertex -8.17962 2 4.10154
      vertex -11.6208 2 4.34127
    endloop
  endfacet
  facet normal 0 1 2.22045e-16
    outer loop
      vertex -12.45 2 3.2
      vertex -13.942 2 4.93005
      vertex -11.6208 2 4.34127
    endloop
  endfacet
  facet normal 0 1 2.22045e-16
    outer loop
      vertex -10.2792 2 3.90534
      vertex -8.17962 2 2.29846
      vertex -10.2792 2 2.49466
    endloop
  endfacet
  facet normal -0.959493 6.25572e-17 -0.281733
    outer loop
      vertex -13.942 2 1.46995
      vertex -14.0976 2 2
      vertex -14.45 2 3.2
    endloop
  endfacet
  facet normal -0.959493 6.25572e-17 -0.281733
    outer loop
      vertex -14.0976 2 2
      vertex -14.0976 2.66454e-16 2
      vertex -14.45 2 3.2
    endloop
  endfacet
  facet normal -0.959493 6.25572e-17 -0.281733
    outer loop
      vertex -14.0976 2.66454e-16 2
      vertex -14.45 0 3.2
      vertex -14.45 2 3.2
    endloop
  endfacet
  facet normal 0 -1 -2.22045e-16
    outer loop
      vertex -11.6208 2.53412e-16 2.05873
      vertex -8.37143 2.66454e-16 2
      vertex -8.17962 2.00183e-16 2.29846
    endloop
  endfacet
  facet normal 0 -1 -2.22045e-16
    outer loop
      vertex -10.2792 1.56617e-16 2.49466
      vertex -11.6208 2.53412e-16 2.05873
      vertex -8.17962 2.00183e-16 2.29846
    endloop
  endfacet
  facet normal 0 -1 -2.22045e-16
    outer loop
      vertex -12.5793 -6.46332e-16 6.11082
      vertex -14.0976 2.66454e-16 2
      vertex -10.7946 -7.03311e-16 6.36743
    endloop
  endfacet
  facet normal 0 -1 -2.22045e-16
    outer loop
      vertex -13.942 -3.84148e-16 4.93005
      vertex -14.0976 2.66454e-16 2
      vertex -12.5793 -6.46332e-16 6.11082
    endloop
  endfacet
  facet normal 0 -1 -2.22045e-16
    outer loop
      vertex -14.45 0 3.2
      vertex -14.0976 2.66454e-16 2
      vertex -13.942 -3.84148e-16 4.93005
    endloop
  endfacet
  facet normal 0 -1 -2.22045e-16
    outer loop
      vertex -10.7946 -7.03311e-16 6.36743
      vertex -11.6208 -2.53412e-16 4.34127
      vertex -9.15445 -5.36992e-16 5.6184
    endloop
  endfacet
  facet normal 0 -1 -2.22045e-16
    outer loop
      vertex -10.7946 -7.03311e-16 6.36743
      vertex -14.0976 2.66454e-16 2
      vertex -11.6208 -2.53412e-16 4.34127
    endloop
  endfacet
  facet normal 0 -1 -2.22045e-16
    outer loop
      vertex -9.15445 -5.36992e-16 5.6184
      vertex -10.2792 -1.56617e-16 3.90534
      vertex -8.17962 -2.00183e-16 4.10154
    endloop
  endfacet
  facet normal 0 -1 -2.22045e-16
    outer loop
      vertex -8.17962 -2.00183e-16 4.10154
      vertex -10.2792 1.56617e-16 2.49466
      vertex -8.17962 2.00183e-16 2.29846
    endloop
  endfacet
  facet normal 0 -1 -2.22045e-16
    outer loop
      vertex -14.0976 2.66454e-16 2
      vertex -8.37143 2.66454e-16 2
      vertex -11.6208 2.53412e-16 2.05873
    endloop
  endfacet
  facet normal 0 -1 -2.22045e-16
    outer loop
      vertex -11.6208 -2.53412e-16 4.34127
      vertex -10.2792 -1.56617e-16 3.90534
      vertex -9.15445 -5.36992e-16 5.6184
    endloop
  endfacet
  facet normal 0 -1 -2.22045e-16
    outer loop
      vertex -10.2792 -1.56617e-16 3.90534
      vertex -10.2792 1.56617e-16 2.49466
      vertex -8.17962 -2.00183e-16 4.10154
    endloop
  endfacet
  facet normal 0 -1 -2.22045e-16
    outer loop
      vertex -12.45 0 3.2
      vertex -11.6208 -2.53412e-16 4.34127
      vertex -14.0976 2.66454e-16 2
    endloop
  endfacet
  facet normal 0 -1 -2.22045e-16
    outer loop
      vertex -11.6208 2.53412e-16 2.05873
      vertex -12.45 0 3.2
      vertex -14.0976 2.66454e-16 2
    endloop
  endfacet
  facet normal 0.841253 1.20046e-16 -0.540641
    outer loop
      vertex -8.37143 2 2
      vertex -8.17962 2 2.29846
      vertex -8.17962 2.00183e-16 2.29846
    endloop
  endfacet
  facet normal 0.841253 1.20046e-16 -0.540641
    outer loop
      vertex -9.15445 2 0.781601
      vertex -8.17962 2 2.29846
      vertex -8.37143 2 2
    endloop
  endfacet
  facet normal 0.841253 1.20046e-16 -0.540641
    outer loop
      vertex -8.37143 2.66454e-16 2
      vertex -8.37143 2 2
      vertex -8.17962 2.00183e-16 2.29846
    endloop
  endfacet
  facet normal -1 0 0
    outer loop
      vertex -7 80 2
      vertex -7 80 0.4
      vertex -7 2 2
    endloop
  endfacet
  facet normal -1 0 0
    outer loop
      vertex -7 3 1
      vertex -7 80 0.4
      vertex -7 3 0.4
    endloop
  endfacet
  facet normal -1 0 0
    outer loop
      vertex -7 2 2
      vertex -7 80 0.4
      vertex -7 3 1
    endloop
  endfacet
  facet normal -1 0 0
    outer loop
      vertex -7 2 1
      vertex -7 2 2
      vertex -7 3 1
    endloop
  endfacet
  facet normal 0.707107 0.707107 0
    outer loop
      vertex -7 3 1
      vertex -7 3 0.4
      vertex -37.8198 33.8198 1
    endloop
  endfacet
  facet normal 0.707107 0.707107 0
    outer loop
      vertex -37.8198 33.8198 1
      vertex -7 3 0.4
      vertex -37.8198 33.8198 0.4
    endloop
  endfacet
  facet normal 0 0 1
    outer loop
      vertex -8.82843 2 1
      vertex -7 2 1
      vertex -7 3 1
    endloop
  endfacet
  facet normal 0 0 1
    outer loop
      vertex -39.234 32.4056 1
      vertex -8.82843 2 1
      vertex -37.8198 33.8198 1
    endloop
  endfacet
  facet normal 0 0 1
    outer loop
      vertex -37.8198 33.8198 1
      vertex -8.82843 2 1
      vertex -7 3 1
    endloop
  endfacet
  facet normal -0.654861 -1.6781e-16 0.75575
    outer loop
      vertex -12.5793 -6.46332e-16 6.11082
      vertex -12.5793 2 6.11082
      vertex -13.942 2 4.93005
    endloop
  endfacet
  facet normal -0.654861 -1.6781e-16 0.75575
    outer loop
      vertex -13.942 -3.84148e-16 4.93005
      vertex -12.5793 -6.46332e-16 6.11082
      vertex -13.942 2 4.93005
    endloop
  endfacet
  facet normal -0.959493 -6.25572e-17 0.281733
    outer loop
      vertex -13.942 2 4.93005
      vertex -14.45 2 3.2
      vertex -13.942 -3.84148e-16 4.93005
    endloop
  endfacet
  facet normal -0.959493 -6.25572e-17 0.281733
    outer loop
      vertex -13.942 -3.84148e-16 4.93005
      vertex -14.45 2 3.2
      vertex -14.45 0 3.2
    endloop
  endfacet
  facet normal 1 0 0
    outer loop
      vertex -8.17962 2.00183e-16 2.29846
      vertex -8.17962 2 2.29846
      vertex -8.17962 2 4.10154
    endloop
  endfacet
  facet normal 1 0 0
    outer loop
      vertex -8.17962 -2.00183e-16 4.10154
      vertex -8.17962 2.00183e-16 2.29846
      vertex -8.17962 2 4.10154
    endloop
  endfacet
  facet normal 0.841253 -1.20046e-16 0.540641
    outer loop
      vertex -8.17962 -2.00183e-16 4.10154
      vertex -8.17962 2 4.10154
      vertex -9.15445 2 5.6184
    endloop
  endfacet
  facet normal 0.841253 -1.20046e-16 0.540641
    outer loop
      vertex -9.15445 -5.36992e-16 5.6184
      vertex -8.17962 -2.00183e-16 4.10154
      vertex -9.15445 2 5.6184
    endloop
  endfacet
  facet normal 0.415415 -2.01979e-16 0.909632
    outer loop
      vertex -9.15445 -5.36992e-16 5.6184
      vertex -9.15445 2 5.6184
      vertex -10.7946 2 6.36743
    endloop
  endfacet
  facet normal 0.415415 -2.01979e-16 0.909632
    outer loop
      vertex -10.7946 -7.03311e-16 6.36743
      vertex -9.15445 -5.36992e-16 5.6184
      vertex -10.7946 2 6.36743
    endloop
  endfacet
  facet normal -0.142315 -2.19784e-16 0.989821
    outer loop
      vertex -10.7946 -7.03311e-16 6.36743
      vertex -10.7946 2 6.36743
      vertex -12.5793 2 6.11082
    endloop
  endfacet
  facet normal -0.142315 -2.19784e-16 0.989821
    outer loop
      vertex -12.5793 -6.46332e-16 6.11082
      vertex -10.7946 -7.03311e-16 6.36743
      vertex -12.5793 2 6.11082
    endloop
  endfacet
  facet normal 0.809017 -1.30515e-16 0.587785
    outer loop
      vertex -12.45 2 3.2
      vertex -12.45 0 3.2
      vertex -11.6208 2.53412e-16 2.05873
    endloop
  endfacet
  facet normal 0.809017 -1.30515e-16 0.587785
    outer loop
      vertex -11.6208 2 2.05873
      vertex -12.45 2 3.2
      vertex -11.6208 2.53412e-16 2.05873
    endloop
  endfacet
  facet normal 0.809017 1.30515e-16 -0.587785
    outer loop
      vertex -11.6208 -2.53412e-16 4.34127
      vertex -12.45 0 3.2
      vertex -12.45 2 3.2
    endloop
  endfacet
  facet normal 0.809017 1.30515e-16 -0.587785
    outer loop
      vertex -11.6208 2 4.34127
      vertex -11.6208 -2.53412e-16 4.34127
      vertex -12.45 2 3.2
    endloop
  endfacet
  facet normal -0.309017 2.11177e-16 -0.951056
    outer loop
      vertex -11.6208 -2.53412e-16 4.34127
      vertex -11.6208 2 4.34127
      vertex -10.2792 -1.56617e-16 3.90534
    endloop
  endfacet
  facet normal -0.309017 2.11177e-16 -0.951056
    outer loop
      vertex -10.2792 -1.56617e-16 3.90534
      vertex -11.6208 2 4.34127
      vertex -10.2792 2 3.90534
    endloop
  endfacet
  facet normal -1 0 0
    outer loop
      vertex -10.2792 -1.56617e-16 3.90534
      vertex -10.2792 2 3.90534
      vertex -10.2792 1.56617e-16 2.49466
    endloop
  endfacet
  facet normal -1 0 0
    outer loop
      vertex -10.2792 1.56617e-16 2.49466
      vertex -10.2792 2 3.90534
      vertex -10.2792 2 2.49466
    endloop
  endfacet
  facet normal -0.309017 -2.11177e-16 0.951056
    outer loop
      vertex -11.6208 2 2.05873
      vertex -11.6208 2.53412e-16 2.05873
      vertex -10.2792 1.56617e-16 2.49466
    endloop
  endfacet
  facet normal -0.309017 -2.11177e-16 0.951056
    outer loop
      vertex -10.2792 2 2.49466
      vertex -11.6208 2 2.05873
      vertex -10.2792 1.56617e-16 2.49466
    endloop
  endfacet
endsolid OpenSCAD_Model
